<?xml version="1.0" encoding="utf-8"?>
<!-- Generator: Adobe Illustrator 20.1.0, SVG Export Plug-In . SVG Version: 6.00 Build 0)  -->
<svg version="1.1" id="Layer_1" xmlns="http://www.w3.org/2000/svg" xmlns:xlink="http://www.w3.org/1999/xlink" x="0px" y="0px"
	 viewBox="0 0 100 100" style="enable-background:new 0 0 100 100;" xml:space="preserve">
<style type="text/css">
	.st0{fill:#FFFFFF;}
</style>
<title>Sweet-stuff_5</title>
<path class="st0" d="M79.4,43.9c-0.6-3.2-2.9-5.8-5.9-6.7c0.3-2.1-0.3-4.2-1.6-5.9c-1.3-1.7-3.1-2.9-5.2-3.3
	c0.5-2.1,0.3-4.3-0.7-6.3c-1.3-2.4-3.6-3.9-6.3-4.2c-0.4-1.4-1-2.8-1.7-4.1l-0.6-1.2c-2.5-5-3.8-7.6-6.4-6.6s-1.9,4-1.3,7
	c0.5,2.4,0,2.8-1.1,3.8c-1.3,1-2.2,2.4-2.5,4c-2.5,0.2-4.9,1.4-6.5,3.2c-0.4,0.6-0.8,1.2-1,2c-6.1,0.9-10.5,6.5-9.8,12.7
	c-3.2,0.4-5.9,2.4-7.4,5.2c-1.7,3.4-1.1,7.6,1.5,10.4c3.7,11.7,8.4,26.3,11.7,36.1c0,0.1,0.1,0.1,0.1,0.2l0.1,0.1
	c0.1,0.1,0.1,0.3,0.2,0.4v0.1c0.1,0.1,0.2,0.2,0.3,0.3l0.1,0.1l0.3,0.2h0.1h0.1h0.1c4.1,2,8.6,3.1,13.1,3.1l0,0
	c4.6,0,9.1-1.1,13.3-3h0c0.1-0.1,0.2-0.1,0.3-0.2h0.1c0.1-0.1,0.2-0.1,0.3-0.2l0.1-0.1c0.1-0.1,0.1-0.2,0.2-0.2l0.1-0.1
	c0.1-0.1,0.1-0.2,0.1-0.3l0.1-0.2V90c3.3-9.8,8-24.2,11.6-35.7C78.6,52,80.3,47.9,79.4,43.9z M59.3,87.4c-0.7,0.3-1.4,0.5-2,0.8
	l6.2-29.4c1.9-0.5,3.8-1.1,5.8-1.9C65.9,67.1,62.1,78.8,59.3,87.4z M51.4,89.4V60.6c2.2-0.1,4.5-0.3,6.7-0.7l-6.2,29.5L51.4,89.4z
	 M46.1,89.4l-6.3-29.5c2.2,0.4,4.4,0.6,6.6,0.7v28.8L46.1,89.4z M39,87.5c-2.9-8.5-6.7-20.1-9.9-30.3c1.8,0.6,3.6,1.2,5.4,1.6
	l6.3,29.4C40.2,88,39.6,87.8,39,87.5z M52,20.1c1-0.8,1.8-1.8,2.4-3c1.3,3,1.2,4.8,0.6,5.5c-0.6,0.6-1.5,0.8-2.3,0.5
	c-0.7-0.2-1.3-0.6-1.3-1l0,0v-0.2C50.9,21,50.9,21,52,20.1L52,20.1z M43.5,26.8c0.5-0.6,1.7-1.2,3.7-1.5c1,1.4,2.5,2.4,4.2,2.8
	c2.7,0.8,5.6-0.1,7.5-2.3c0.7-0.9,1.2-1.9,1.4-3c0.6,0.2,1.2,0.7,1.5,1.3c0.6,1.5,0.4,3.2-0.5,4.5C59.6,31,54.7,32,49.7,31
	c-3.8-0.7-6.1-2.3-6.3-3.5C43.2,27.3,43.3,27,43.5,26.8L43.5,26.8z M34.8,33.4c1-1.5,2.6-2.6,4.5-2.9c1.5,2.5,4.9,4.5,9.5,5.3
	c1.5,0.3,3.1,0.4,4.6,0.4c4.1,0,8.1-1,10.8-3.5c1.5-0.2,3,0.4,3.9,1.6c0.7,1.1,0.8,2.5,0.1,3.7c-0.7,1.5-4.2,6.3-18.7,6.7
	c-8.4,0.2-14.2-1.6-15.4-4.9C33.3,37.7,33.5,35.3,34.8,33.4L34.8,33.4z M25.9,45.7c0.8-1.6,2.6-2.6,4.4-2.6c2.7,4.3,9,6.6,18.2,6.6
	h1.3c13.8-0.3,19.6-4.5,22-7.8c1.5,0.3,2.7,1.5,2.9,3c0.4,1.9-0.4,4.5-2.4,5.4l0,0c-9,3.9-15.6,5.4-23.4,5.4
	c-7.6,0-16.8-2.1-22.2-5.1C25.4,49.3,25,47.4,25.9,45.7L25.9,45.7z"/>
</svg>
