<svg style="position: absolute; width: 0; height: 0; overflow: hidden;" version="1.1" xmlns="http://www.w3.org/2000/svg" xmlns:xlink="http://www.w3.org/1999/xlink">
<defs>
<symbol id="icon-candyicon" viewBox="0 0 32 32">
<title>candyicon</title>
<path class="path1" fill="#fff" d="M26.432 15.872c1.376-1.376 2.144-3.2 2.144-5.152s-0.768-3.776-2.144-5.152c-1.984-1.984-4.8-2.56-7.296-1.792-0.032 0-0.064 0.032-0.096 0.032-1.056 0.352-2.048 0.928-2.912 1.76-1.984 1.984-2.56 4.8-1.792 7.296 0 0.032 0.032 0.064 0.032 0.096 0.32 0.96 0.832 1.888 1.568 2.656l-12.416 12.416c-0.128 0.128-0.128 0.32 0 0.448 0.064 0.064 0.16 0.096 0.224 0.096s0.16-0.032 0.224-0.096l12.416-12.416c0.48 0.448 0.992 0.8 1.536 1.088 0 0 0 0 0 0 1.056 0.544 2.208 0.832 3.36 0.832 0.736 0 1.44-0.096 2.144-0.32 0.032 0 0.064 0 0.096-0.032 1.056-0.352 2.080-0.928 2.912-1.76zM25.984 15.392c-0.768 0.768-1.664 1.28-2.624 1.6-2.592-0.832-3.136-2.336-3.104-3.424 0-0.864 0.352-1.632 0.672-2.112 0.096 0.736 0.48 1.696 1.216 2.432 0.48 0.48 1.344 1.088 2.656 1.088 0.544 0 1.152-0.096 1.856-0.352-0.224 0.288-0.448 0.544-0.672 0.768zM16.608 15.392c0 0-0.032-0.032-0.064-0.032-0.736-0.736-1.248-1.632-1.568-2.56 0.832-2.592 2.304-3.136 3.424-3.104 0.864 0 1.632 0.352 2.112 0.672-0.736 0.096-1.696 0.48-2.432 1.216-0.704 0.672-1.632 2.112-0.736 4.48-0.256-0.192-0.48-0.384-0.704-0.576 0-0.064-0.032-0.064-0.032-0.096zM27.584 8.608c-0.832 2.592-2.336 3.136-3.424 3.136-0.864 0-1.632-0.352-2.112-0.672 0.736-0.096 1.696-0.48 2.432-1.216 0.704-0.672 1.632-2.112 0.736-4.48 0.256 0.192 0.512 0.384 0.736 0.64 0.768 0.736 1.312 1.632 1.632 2.592zM16.608 6.016c0.768-0.768 1.664-1.28 2.624-1.6 2.592 0.832 3.136 2.336 3.104 3.424 0 0.864-0.352 1.632-0.672 2.112-0.096-0.736-0.48-1.696-1.216-2.432-0.672-0.704-2.112-1.632-4.48-0.736 0.192-0.288 0.384-0.544 0.64-0.768z"></path>
</symbol>
<symbol id="icon-chocolateicon" viewBox="0 0 32 32">
<title>chocolateicon</title>
<path class="path1" fill="#fff" d="M30.336 17.664l-1.344-3.968c0-0.032-0.032-0.096-0.064-0.128 0 0 0 0 0-0.032-0.032-0.064-0.064-0.096-0.096-0.16 0 0-0.032-0.032-0.032-0.032-0.032-0.032-0.064-0.064-0.128-0.096 0 0 0 0-0.032-0.032l-12.48-7.392c-0.256-0.16-0.576-0.16-0.832 0l-11.552 7.072c0 0 0 0-0.032 0.032s-0.096 0.064-0.128 0.096c0 0-0.032 0.032-0.032 0.032-0.032 0.032-0.064 0.064-0.096 0.096 0 0-0.032 0.032-0.032 0.032s0 0 0 0.032l-1.76 3.616c-0.192 0.384-0.032 0.832 0.32 1.056l14.816 8.32c0.128 0.064 0.256 0.096 0.384 0.096 0.16 0 0.288-0.032 0.416-0.128l12.32-7.552c0.352-0.224 0.512-0.608 0.384-0.96zM15.744 7.456l10.944 6.528-9.664 5.952-11.264-6.368 9.984-6.112zM17.248 24.544l-13.76-7.712 1.056-2.144 12.096 6.88c0.128 0.064 0.256 0.096 0.384 0.096 0.16 0 0.288-0.032 0.416-0.128l10.336-6.368 0.8 2.4-11.328 6.976z"></path>
<path class="path2" fill="#fff" d="M14.368 11.84l1.6-1.024 1.696 1.152c0.128 0.096 0.288 0.128 0.448 0.128 0.256 0 0.512-0.128 0.672-0.352 0.256-0.352 0.16-0.864-0.224-1.12l-2.112-1.44c-0.256-0.192-0.608-0.192-0.864 0l-2.048 1.28c-0.384 0.224-0.48 0.736-0.256 1.088 0.224 0.416 0.736 0.512 1.088 0.288z"></path>
<path class="path3" fill="#fff" d="M18.528 17.6c0.256 0 0.512-0.128 0.672-0.352 0.256-0.352 0.16-0.864-0.224-1.12l-2.112-1.408c-0.256-0.16-0.608-0.192-0.864 0l-1.984 1.248c-0.384 0.224-0.48 0.736-0.256 1.088 0.224 0.384 0.736 0.48 1.088 0.256l1.568-0.96 1.696 1.152c0.128 0.064 0.256 0.096 0.416 0.096z"></path>
<path class="path4" fill="#fff" d="M17.888 14.4c0.256 0.352 0.736 0.448 1.12 0.192l1.472-1.024 1.664 1.12c0.128 0.096 0.288 0.128 0.448 0.128 0.256 0 0.512-0.128 0.672-0.352 0.256-0.352 0.16-0.864-0.224-1.12l-2.112-1.44c-0.288-0.192-0.64-0.192-0.896 0l-1.92 1.344c-0.384 0.288-0.48 0.8-0.224 1.152z"></path>
<path class="path5" fill="#fff" d="M14.624 14.496c0.256-0.352 0.16-0.864-0.224-1.12l-2.112-1.44c-0.256-0.16-0.608-0.192-0.864 0l-2.048 1.28c-0.384 0.224-0.48 0.736-0.256 1.088 0.224 0.384 0.736 0.48 1.088 0.256l1.6-0.992 1.696 1.152c0.128 0.096 0.288 0.128 0.448 0.128 0.256 0 0.512-0.128 0.672-0.352z"></path>
</symbol>
<symbol id="icon-cupcake" viewBox="0 0 32 32">
<title>cupcake</title>
<path class="path1" fill="#fff" d="M25.408 14.048c-0.192-1.024-0.928-1.856-1.888-2.144 0.096-0.672-0.096-1.344-0.512-1.888s-0.992-0.928-1.664-1.056c0.16-0.672 0.096-1.376-0.224-2.016-0.416-0.768-1.152-1.248-2.016-1.344-0.128-0.448-0.32-0.896-0.544-1.312l-0.192-0.384c-0.8-1.6-1.216-2.432-2.048-2.112s-0.608 1.28-0.416 2.24c0.16 0.768 0 0.896-0.352 1.216-0.416 0.32-0.704 0.768-0.8 1.28-0.8 0.064-1.568 0.448-2.080 1.024-0.128 0.192-0.256 0.384-0.32 0.64-1.952 0.288-3.36 2.080-3.136 4.064-1.024 0.128-1.888 0.768-2.368 1.664-0.544 1.088-0.352 2.432 0.48 3.328 1.184 3.744 2.688 8.416 3.744 11.552 0 0.032 0.032 0.032 0.032 0.064l0.032 0.032c0.032 0.032 0.032 0.096 0.064 0.128v0.032c0.032 0.032 0.064 0.064 0.096 0.096l0.032 0.032 0.096 0.064h0.096c1.312 0.64 2.752 0.992 4.192 0.992v0c1.472 0 2.912-0.352 4.256-0.96v0c0.032-0.032 0.064-0.032 0.096-0.064h0.032c0.032-0.032 0.064-0.032 0.096-0.064l0.032-0.032c0.032-0.032 0.032-0.064 0.064-0.064l0.032-0.032c0.032-0.032 0.032-0.064 0.032-0.096l0.032-0.064v-0.064c1.056-3.136 2.56-7.744 3.712-11.424 1.056-0.736 1.6-2.048 1.312-3.328zM18.976 27.968c-0.224 0.096-0.448 0.16-0.64 0.256l1.984-9.408c0.608-0.16 1.216-0.352 1.856-0.608-1.088 3.264-2.304 7.008-3.2 9.76zM16.448 28.608v-9.216c0.704-0.032 1.44-0.096 2.144-0.224l-1.984 9.44h-0.16zM14.752 28.608l-2.016-9.44c0.704 0.128 1.408 0.192 2.112 0.224v9.216h-0.096zM12.48 28c-0.928-2.72-2.144-6.432-3.168-9.696 0.576 0.192 1.152 0.384 1.728 0.512l2.016 9.408c-0.192-0.064-0.384-0.128-0.576-0.224zM16.64 6.432c0.32-0.256 0.576-0.576 0.768-0.96 0.416 0.96 0.384 1.536 0.192 1.76-0.192 0.192-0.48 0.256-0.736 0.16-0.224-0.064-0.416-0.192-0.416-0.32v0-0.064c-0.16-0.288-0.16-0.288 0.192-0.576v0zM13.92 8.576c0.16-0.192 0.544-0.384 1.184-0.48 0.32 0.448 0.8 0.768 1.344 0.896 0.864 0.256 1.792-0.032 2.4-0.736 0.224-0.288 0.384-0.608 0.448-0.96 0.192 0.064 0.384 0.224 0.48 0.416 0.192 0.48 0.128 1.024-0.16 1.44-0.544 0.768-2.112 1.088-3.712 0.768-1.216-0.224-1.952-0.736-2.016-1.12-0.064-0.064-0.032-0.16 0.032-0.224v0zM11.136 10.688c0.32-0.48 0.832-0.832 1.44-0.928 0.48 0.8 1.568 1.44 3.040 1.696 0.48 0.096 0.992 0.128 1.472 0.128 1.312 0 2.592-0.32 3.456-1.12 0.48-0.064 0.96 0.128 1.248 0.512 0.224 0.352 0.256 0.8 0.032 1.184-0.224 0.48-1.344 2.016-5.984 2.144-2.688 0.064-4.544-0.512-4.928-1.568-0.256-0.672-0.192-1.44 0.224-2.048v0zM8.288 14.624c0.256-0.512 0.832-0.832 1.408-0.832 0.864 1.376 2.88 2.112 5.824 2.112h0.416c4.416-0.096 6.272-1.44 7.040-2.496 0.48 0.096 0.864 0.48 0.928 0.96 0.128 0.608-0.128 1.44-0.768 1.728v0c-2.88 1.248-4.992 1.728-7.488 1.728-2.432 0-5.376-0.672-7.104-1.632-0.416-0.416-0.544-1.024-0.256-1.568v0z"></path>
</symbol>
<symbol id="icon-cupcakeicon" viewBox="0 0 32 32">
<title>cupcakeicon</title>
<path class="path1" fill="#fff" d="M16.32 24.032v3.968c0 0.192-0.128 0.32-0.32 0.32s-0.32-0.128-0.32-0.32v-3.968c0-0.192 0.128-0.32 0.32-0.32s0.32 0.128 0.32 0.32zM19.68 23.488c-0.16-0.032-0.32 0.096-0.352 0.288l-0.512 3.968c-0.032 0.16 0.096 0.352 0.288 0.352 0 0 0.032 0 0.032 0 0.16 0 0.288-0.128 0.32-0.288l0.512-3.968c0.032-0.16-0.096-0.32-0.288-0.352zM24.096 21.408l-1.76 7.104c0 0.128-0.064 0.224-0.16 0.32-0.064 0.032-1.76 1.12-6.144 1.12s-6.080-1.088-6.144-1.12c-0.064-0.064-0.128-0.128-0.16-0.224l-1.792-7.2c-2.432-3.008-1.344-8.256 1.216-10.784 0 0 0 0 0 0-0.096-0.32-0.16-0.672-0.16-1.056 0-1.504 0.928-2.528 2.56-2.848 0 0 0-0.032 0-0.032 0-1.888 1.216-2.624 2.016-3.104 0.768-0.48 0.832-0.576 0.64-0.96-0.064-0.128-0.064-0.288 0.032-0.384 0.096-0.128 0.224-0.192 0.352-0.16 2.688 0.288 5.888 1.696 5.888 4.608 0 0.032 0 0.032 0 0.064 1.632 0.384 2.56 1.376 2.56 2.848 0 0.384-0.064 0.736-0.16 1.056 2.56 2.496 3.616 7.744 1.216 10.752zM16 22.176v0 0c0 0 0 0 0 0zM12.288 6.688c0 0.896 1.568 1.536 3.712 1.536s3.712-0.64 3.712-1.536c0-2.624-3.264-3.52-4.64-3.808 0 0.64-0.608 1.024-1.12 1.344-0.768 0.48-1.664 0.992-1.664 2.464zM9.76 9.568c0 0.8 0 3.232 6.24 3.232 3.456 0 5.472-0.736 6.048-2.208 0 0 0-0.032 0-0.032 0.128-0.32 0.192-0.64 0.192-1.024 0-1.344-1.024-1.888-1.984-2.112-0.544 0.928-2.080 1.504-4.256 1.504s-3.712-0.576-4.256-1.504c-0.96 0.224-1.984 0.768-1.984 2.144zM7.328 17.792c0.736 0.448 1.216 0.096 1.856-0.416 0.768-0.576 1.696-1.312 3.232-0.8 0.448 0.16 0.832 0.512 1.184 0.832 0.32 0.288 0.64 0.576 0.96 0.704 0.704 0.256 1.536 0.064 2.048-0.48 0.128-0.16 0.288-0.352 0.416-0.544 0.576-0.768 1.248-1.696 2.336-1.632 0.672 0.032 1.088 0.32 1.536 0.608 0.192 0.128 0.352 0.256 0.576 0.352 0.576 0.288 1.12 0.256 1.664-0.16 0.512-0.384 0.928-0.992 1.184-1.472-0.352-1.28-0.992-2.496-1.824-3.392-0.896 1.472-3.104 2.208-6.528 2.208-3.456 0-5.632-0.736-6.528-2.208-1.408 1.568-2.304 4.096-2.112 6.4zM23.072 22.272c-0.288 0.16-0.608 0.32-1.024 0.416-0.928 0.224-1.664-0.032-2.112-0.256-0.32 0.288-0.96 0.704-1.92 0.768-0.928 0.064-1.632-0.256-2.016-0.544-0.352 0.256-0.992 0.544-1.792 0.544-0.064 0-0.128 0-0.224 0-0.896-0.064-1.568-0.448-1.92-0.768-0.416 0.256-1.184 0.512-2.112 0.256-0.416-0.096-0.736-0.256-1.024-0.416l1.472 5.984c0.448 0.224 2.112 0.928 5.6 0.928s5.12-0.704 5.568-0.928l1.504-5.984zM12.288 23.488c-0.16 0.032-0.288 0.192-0.288 0.352l0.512 3.968c0.032 0.16 0.16 0.288 0.32 0.288 0 0 0.032 0 0.032 0 0.16-0.032 0.288-0.192 0.288-0.352l-0.512-3.968c0-0.192-0.16-0.32-0.352-0.288zM13.984 6.368l0.608 0.256c0.032 0.032 0.096 0.032 0.128 0.032 0.128 0 0.256-0.064 0.288-0.192 0.064-0.16 0-0.352-0.16-0.416l-0.608-0.256c-0.16-0.064-0.352 0-0.416 0.16s0 0.352 0.16 0.416zM17.664 6.272c0.064 0 0.128-0.032 0.16-0.064l0.544-0.352c0.16-0.096 0.192-0.288 0.096-0.448s-0.288-0.192-0.448-0.096l-0.544 0.352c-0.16 0.096-0.192 0.288-0.096 0.448 0.096 0.128 0.192 0.16 0.288 0.16zM15.52 5.152c0.032 0 0.064 0 0.096 0l0.64-0.16c0.16-0.032 0.288-0.224 0.224-0.384-0.032-0.16-0.224-0.288-0.384-0.224l-0.64 0.16c-0.16 0.032-0.288 0.224-0.224 0.384 0 0.128 0.16 0.224 0.288 0.224zM19.36 9.76l0.608 0.256c0.032 0.032 0.096 0.032 0.128 0.032 0.128 0 0.256-0.064 0.288-0.192 0.064-0.16 0-0.352-0.16-0.416l-0.608-0.256c-0.16-0.064-0.352 0-0.416 0.16s0 0.352 0.16 0.416zM11.648 9.984c0.064 0 0.128-0.032 0.16-0.064l0.544-0.352c0.16-0.096 0.192-0.288 0.096-0.448s-0.288-0.192-0.448-0.096l-0.544 0.352c-0.16 0.096-0.192 0.288-0.096 0.448 0.064 0.096 0.192 0.16 0.288 0.16zM16.896 10.752c0.032 0 0.064 0 0.096 0l0.64-0.16c0.16-0.032 0.288-0.224 0.224-0.384-0.032-0.16-0.224-0.288-0.384-0.224l-0.64 0.16c-0.16 0.032-0.288 0.224-0.224 0.384 0.032 0.128 0.16 0.224 0.288 0.224zM14.144 10.784c0.032 0.128 0.16 0.224 0.32 0.224 0.032 0 0.064 0 0.096 0 0.16-0.032 0.256-0.224 0.224-0.384l-0.16-0.64c-0.032-0.16-0.224-0.256-0.384-0.224s-0.256 0.224-0.224 0.384l0.128 0.64z"></path>
</symbol>
</defs>
</svg>
